<svg width="8" height="6" viewBox="0 0 8 6" fill="none" xmlns="http://www.w3.org/2000/svg">
<mask id="path-1-inside-1_1_249" fill="white">
<path d="M0.405762 0.447235H7.94776V5.44724H0.405762V0.447235Z"/>
</mask>
<g clip-path="url(#paint0_diamond_1_249_clip_path)" data-figma-skip-parse="true" mask="url(#path-1-inside-1_1_249)"><g transform="matrix(0.003771 0 0 0.005 4.17676 0.447235)"><rect x="0" y="0" width="1265.18" height="1200" fill="url(#paint0_diamond_1_249)" opacity="1" shape-rendering="crispEdges"/><rect x="0" y="0" width="1265.18" height="1200" transform="scale(1 -1)" fill="url(#paint0_diamond_1_249)" opacity="1" shape-rendering="crispEdges"/><rect x="0" y="0" width="1265.18" height="1200" transform="scale(-1 1)" fill="url(#paint0_diamond_1_249)" opacity="1" shape-rendering="crispEdges"/><rect x="0" y="0" width="1265.18" height="1200" transform="scale(-1)" fill="url(#paint0_diamond_1_249)" opacity="1" shape-rendering="crispEdges"/></g></g><path d="M0.405762 0.447235V-4.55276H-3.59424V0.447235H0.405762ZM7.94776 0.447235H11.9478V-4.55276H7.94776V0.447235ZM0.405762 5.44724H7.94776V-4.55276H0.405762V5.44724ZM3.94776 0.447235V5.44724H11.9478V0.447235H3.94776ZM4.40576 5.44724V0.447235H-3.59424V5.44724H4.40576Z" data-figma-gradient-fill="{&#34;type&#34;:&#34;GRADIENT_DIAMOND&#34;,&#34;stops&#34;:[{&#34;color&#34;:{&#34;r&#34;:1.0,&#34;g&#34;:1.0,&#34;b&#34;:1.0,&#34;a&#34;:1.0},&#34;position&#34;:0.99999988079071045},{&#34;color&#34;:{&#34;r&#34;:0.0,&#34;g&#34;:0.0,&#34;b&#34;:0.0,&#34;a&#34;:0.0},&#34;position&#34;:1.0}],&#34;stopsVar&#34;:[{&#34;color&#34;:{&#34;r&#34;:1.0,&#34;g&#34;:1.0,&#34;b&#34;:1.0,&#34;a&#34;:1.0},&#34;position&#34;:0.99999988079071045},{&#34;color&#34;:{&#34;r&#34;:0.0,&#34;g&#34;:0.0,&#34;b&#34;:0.0,&#34;a&#34;:0.0},&#34;position&#34;:1.0}],&#34;transform&#34;:{&#34;m00&#34;:7.5419950485229492,&#34;m01&#34;:0.0,&#34;m02&#34;:0.405761718750,&#34;m10&#34;:0.0,&#34;m11&#34;:10.0,&#34;m12&#34;:-4.5527648925781250},&#34;opacity&#34;:1.0,&#34;blendMode&#34;:&#34;NORMAL&#34;,&#34;visible&#34;:true}" mask="url(#path-1-inside-1_1_249)"/>
<defs>
<clipPath id="paint0_diamond_1_249_clip_path"><path d="M0.405762 0.447235V-4.55276H-3.59424V0.447235H0.405762ZM7.94776 0.447235H11.9478V-4.55276H7.94776V0.447235ZM0.405762 5.44724H7.94776V-4.55276H0.405762V5.44724ZM3.94776 0.447235V5.44724H11.9478V0.447235H3.94776ZM4.40576 5.44724V0.447235H-3.59424V5.44724H4.40576Z" mask="url(#path-1-inside-1_1_249)"/></clipPath><linearGradient id="paint0_diamond_1_249" x1="0" y1="0" x2="500" y2="500" gradientUnits="userSpaceOnUse">
<stop offset="1" stop-color="white"/>
<stop offset="1" stop-opacity="0"/>
</linearGradient>
</defs>
</svg>
