<svg width="20" height="23" viewBox="0 0 20 23" fill="none" xmlns="http://www.w3.org/2000/svg">
<path d="M10.0044 6.31739C7.16678 6.31739 4.87794 8.60586 4.87794 11.443C4.87794 14.2802 7.16678 16.5686 10.0044 16.5686C12.842 16.5686 15.1309 14.2802 15.1309 11.443C15.1309 8.60586 12.842 6.31739 10.0044 6.31739ZM10.0044 14.7753C8.17066 14.7753 6.67154 13.2809 6.67154 11.443C6.67154 9.60511 8.1662 8.11069 10.0044 8.11069C11.8426 8.11069 13.3373 9.60511 13.3373 11.443C13.3373 13.2809 11.8382 14.7753 10.0044 14.7753ZM16.5363 6.10773C16.5363 6.77241 16.0009 7.30326 15.3406 7.30326C14.6758 7.30326 14.1449 6.76795 14.1449 6.10773C14.1449 5.44751 14.6803 4.9122 15.3406 4.9122C16.0009 4.9122 16.5363 5.44751 16.5363 6.10773ZM19.9317 7.32111C19.8558 5.71963 19.4899 4.30105 18.3165 3.13229C17.1476 1.96352 15.7287 1.59772 14.127 1.51743C12.4762 1.42375 7.52818 1.42375 5.87736 1.51743C4.28008 1.59326 2.86126 1.95906 1.68784 3.12782C0.514419 4.29659 0.153023 5.71517 0.0727129 7.31664C-0.0209824 8.96719 -0.0209824 13.9144 0.0727129 15.5649C0.148561 17.1664 0.514419 18.585 1.68784 19.7537C2.86126 20.9225 4.27562 21.2883 5.87736 21.3686C7.52818 21.4623 12.4762 21.4623 14.127 21.3686C15.7287 21.2928 17.1476 20.927 18.3165 19.7537C19.4855 18.585 19.8513 17.1664 19.9317 15.5649C20.0253 13.9144 20.0253 8.97165 19.9317 7.32111ZM17.799 17.3359C17.451 18.2103 16.7772 18.8839 15.8983 19.2363C14.5821 19.7582 11.4589 19.6378 10.0044 19.6378C8.5499 19.6378 5.42227 19.7537 4.11053 19.2363C3.23604 18.8883 2.56233 18.2147 2.20986 17.3359C1.68784 16.0199 1.80831 12.8973 1.80831 11.443C1.80831 9.98875 1.6923 6.86163 2.20986 5.55011C2.55787 4.67577 3.23158 4.00217 4.11053 3.64975C5.42673 3.12782 8.5499 3.24827 10.0044 3.24827C11.4589 3.24827 14.5866 3.13229 15.8983 3.64975C16.7728 3.99771 17.4465 4.67131 17.799 5.55011C18.321 6.86609 18.2005 9.98875 18.2005 11.443C18.2005 12.8973 18.321 16.0244 17.799 17.3359Z" fill="white"/>
</svg>
